<svg version="1" xmlns="http://www.w3.org/2000/svg" width="933.333" height="933.333" viewBox="0 0 700.000000 700.000000"><path d="M485.5 20.5c-2.8.6-8 2.5-11.5 4.2-31.8 14.9-45.3 52.5-30.2 83.5 2.8 5.6 2.8 5.8.8 5.9-1.2 0-3.2.2-4.6.4-1.4.1-6.1.6-10.5.9-8.7.7-13.3 1.1-24 2.1-3.8.4-9.5.8-12.5 1.1-3 .2-8.2.7-11.5 1-7.5.7-10.6 1-22.5 1.9-5.2.4-10.2.8-11 1-.8.1-5.3.6-10 1-4.7.3-10.1.8-12 1-1.9.2-7.5.6-12.5 1-4.9.3-10.1.8-11.5 1-1.4.2-6.1.7-10.5 1-4.4.4-9.6.8-11.5 1-22.1 2.2-30.3 2.2-52.5 0-1.6-.1-5.7-.5-9-.9-3.3-.3-8.7-.8-12-1.1-3.3-.3-8.5-.7-11.5-1-3-.3-8.5-.7-12.2-1-3.7-.3-8.5-.7-10.5-.9-2.1-.3-7.4-.7-11.8-1.1-4.4-.3-10.2-.8-13-1.1-5.2-.5-9.3-.8-23-1.9-4.4-.4-9.1-.8-10.5-1.1-1.4-.2-6.7-.6-11.8-.9-5.1-.4-10.1-.8-11.2-1-1-.2-6.3-.7-11.7-1-5.4-.4-10.6-.9-11.5-1-.9-.2-5.9-.7-11-1.1-5.1-.3-9.6-.8-10-1.1-.5-.2-.8-.1-.9.4-.6 5.2-1.8 18.2-2.4 26.3-.4 4.7-.8 9.6-1.1 11-.2 1.4-.6 6.3-1 11-.3 4.7-.7 9.8-.9 11.5-.1 1.6-.6 6.6-.9 11-.4 4.4-.9 9.8-1.1 12-.4 4.2-1.7 18.6-4 45.5-.4 4.1-.8 9.1-1 11-.2 1.9-.7 7.3-1 12-.4 4.7-.9 10.3-1.1 12.5-.2 2.2-.6 7.1-.9 11-.3 3.8-.7 8.6-1 10.5-.2 1.9-.7 7.1-1 11.5-.3 4.4-.7 9.6-1 11.5-.2 1.9-.7 6.6-1 10.5-.3 3.8-.7 9.5-1 12.5-.3 3-.7 8.4-1 12-.3 3.6-.7 8.1-1 10-.2 1.9-.7 7.1-1 11.5-.3 4.4-.7 10-1 12.5-.2 2.5-.7 7.9-1.1 12-.4 4.1-.8 8.8-.9 10.5-.2 1.6-.6 7-1 12-.3 4.9-.8 10.1-1 11.5-.2 1.4-.7 6.1-1 10.5-.3 4.4-.7 9.3-.9 11-.2 1.6-.7 6.8-1 11.5-.4 4.7-.9 10.5-1.2 13-.2 2.5-.6 7-.8 10-.8 9.6-1.7 20.2-3.1 34-.2 2.5-.7 7.4-.9 11-1.1 13.9-1.7 20.7-2.1 24.5-.2 2.2-.7 7.1-1 11-.3 3.8-.8 9-1 11.5-.3 2.5-.7 7.6-1.1 11.5-.3 3.8-.7 9-.9 11.5-2.5 28.6-2.5 28.5 0 28.6 1.1.1 4.7.4 8 .8 3.3.3 8.9.8 12.5 1.1 3.6.3 8.5.7 11 1 5.4.5 19.4 1.7 35 3 4.1.3 9.1.8 11 1 1.9.2 7.1.7 11.5 1 4.4.3 9.1.8 10.5 1 1.4.2 6.6.6 11.5 1 5 .3 10.6.8 12.5 1 1.9.2 7 .7 11.2 1 4.3.4 9 .8 10.5 1 1.6.2 6.9.6 11.8 1 12.8.9 15.5 1.2 16 1.7.2.2.6 2.9.8 6 .5 5.8 1.3 8.2 2.5 7.4.4-.2 4.3-.7 8.7-1 4.4-.4 10.3-.9 13-1.1 2.8-.3 7.7-.7 11-1 3.3-.3 8-.7 10.5-1 2.5-.2 7.7-.7 11.5-1 3.9-.3 9.8-.8 13.3-1.1 8.9-.9 14.2-1 14.2-.3 0 .3 1 .5 2.3.5 2.9.1 19.5 1.4 22.7 1.9 1.4.2 6.4.6 11.2 1 4.8.3 9.8.8 11 1 1.3.2 6.4.6 11.3 1 5 .3 10.1.7 11.5.9 1.4.3 6.7.7 11.8 1.1 5.1.3 10.1.8 11 1 .9.1 5.9.6 11 .9 5.1.4 10 .9 11 1 .9.2 6 .7 11.2 1 5.2.4 11.3.9 13.5 1.1 2.2.2 7.2.7 11 1 3.9.3 8.6.7 10.5 1 1.9.2 7.1.7 11.5 1 4.4.3 10.5.8 13.5 1.1 3 .2 7.8.7 10.5.9 2.8.2 7.5.7 10.5 1 7.8.7 15.4 1.3 24 2 4.1.4 9.2.8 11.2 1 18 1.8 19.8 1.8 19.9-.1 0-1.1.2-2.6.4-3.5.1-.9.6-6.1 1-11.5.3-5.4.8-11.3 1-12.9.3-1.7.7-6.1 1-10 .3-3.8.8-7.1 1-7.3.2-.3 2.4-.6 4.7-.8 2.4-.2 6.6-.6 9.3-.8 2.8-.3 9.3-.8 14.5-1.2 5.2-.3 9.7-.8 10-.9.3-.2 5.2-.6 11-1 5.7-.4 11.2-.9 12.3-1.1 1.1-.2 5.7-.6 10.1-.9 4.5-.3 10.1-.8 12.6-1 2.5-.3 7.2-.7 10.5-1 3.3-.2 8.9-.7 12.5-1 10.8-1 13.1-1.2 23-2 5.2-.4 10.3-.9 11.2-1 .9-.2 6-.7 11.3-1 5.3-.4 10.4-.8 11.3-1 .9-.2 3.2-.4 5-.4l3.3-.1-.6-5.7c-1-11.9-2.6-29-3-34.3-.3-3-.7-8.2-1-11.5-.6-6-.9-9.5-2.1-23.5-.3-4.1-.7-9.1-.9-11-.2-1.9-.6-7.1-1-11.5-.3-4.4-.8-9.6-1.1-11.5-.2-1.9-.6-6.7-.9-10.5-.3-3.9-.7-9.5-1-12.5-.3-3-.7-8.4-1-12-.3-3.6-.8-8.5-1-11-.3-2.5-.9-9.9-1.5-16.5-1.2-14.3-2.1-24.9-2.5-29-.2-1.7-.6-6.8-1-11.5s-.8-9.6-1-11c-.2-1.4-.6-6.1-1-10.5-.3-4.4-.8-10.3-1-13-.3-2.8-.7-7.7-1-11-.3-3.3-.7-8.5-1-11.5-1.1-11.7-1.5-16.7-2-23.5-.3-3.9-.7-8.6-1-10.5-.2-1.9-.7-7.3-1-11.8-.4-4.6-.8-9.1-1-10-.1-1-.6-6.2-1-11.7-.3-5.5-.8-11.1-1-12.5-.2-1.4-.6-6.4-1-11.2-.3-4.8-.8-9.8-1-11-.2-1.3-.6-6.4-1-11.3-.3-5-.8-10.8-1-13-.7-6.6-2-20.9-3-34-.3-3.9-.8-8.6-1-10.5-.3-1.9-.7-6.9-1-11-.5-7.4-1.1-13.8-2-23.5-.2-2.8-.7-7.9-1-11.5-.3-3.6-.7-8.5-.9-11-1-11.5-2.1-22.9-2.5-25.3 0-.5-3.6-.6-7.8-.2-4.3.3-10.3.8-13.3 1.1-3 .2-8 .7-11 .9-3 .3-8 .8-11 1-3 .3-8.1.7-11.2 1-3.2.3-8.6.8-12 1-3.5.3-7.9.8-9.8 1-1.9.2-7.2.7-11.8 1l-8.2.7 1.1-2.8c2-5.1 3.6-17 3.2-23-2.4-34.4-29.5-59.9-62.8-59.3-4.9.1-11.3.7-14 1.4z"/></svg>